<svg xmlns="http://www.w3.org/2000/svg" enable-background="new 0 0 24 24" viewBox="0 0 24 24"><path fill="#543B79" d="M22,0H2C0.895,0,0,0.896,0,2v20c0,1.104,0.895,2,2,2h20c1.104,0,2-0.896,2-2V2C24,0.896,23.104,0,22,0L22,0z M17.812,16.853v0.002c-0.199,0.482-0.517,0.906-0.923,1.234c-0.42,0.34-0.952,0.62-1.606,0.82c-0.654,0.203-1.431,0.305-2.333,0.305H6.518v-14h6.803c1.258,0,2.266,0.283,3.019,0.86c0.76,0.58,1.139,1.444,1.139,2.61c0,0.705-0.173,1.31-0.519,1.81c-0.344,0.497-0.84,0.886-1.48,1.156v0.046c0.854,0.18,1.515,0.586,1.949,1.216c0.436,0.63,0.658,1.425,0.658,2.387c0,0.538-0.104,1.05-0.3,1.528L17.812,16.853L17.812,16.853z"/><path fill="#543B79" d="M15.037 13.405c-.41-.375-.986-.558-1.731-.558H8.985v4.368h4.334c.739 0 1.32-.192 1.73-.58.41-.385.62-.934.62-1.64-.007-.69-.21-1.224-.62-1.59H15.037L15.037 13.405zM14.432 10.582h.005c.396-.336.59-.817.59-1.444 0-.704-.176-1.204-.531-1.49-.352-.285-.86-.433-1.528-.433h-4v3.863h4C13.552 11.078 14.049 10.908 14.432 10.582L14.432 10.582z"/><polygon fill="#DEDEDE" points="12 5.214 6.518 5.214 6.518 19.214 12 19.214 12 17.215 8.985 17.215 8.985 12.847 12 12.847 12 11.078 8.969 11.078 8.969 7.215 12 7.215 12 5.214"/><path fill="#493369" d="M12,0H2C0.895,0,0,0.896,0,2v20c0,1.104,0.895,2,2,2h10v-4.786H6.518v-14H12V0L12,0z"/><polygon fill="#493369" points="12 12.847 8.985 12.847 8.985 17.215 12 17.215 12 12.847"/><polygon fill="#493369" points="12 7.215 8.969 7.215 8.969 11.078 12 11.078 12 7.215"/></svg>