<?xml version="1.0" standalone="no"?>
<!DOCTYPE svg PUBLIC "-//W3C//DTD SVG 20010904//EN"
 "http://www.w3.org/TR/2001/REC-SVG-20010904/DTD/svg10.dtd">
<svg version="1.0" xmlns="http://www.w3.org/2000/svg"
 width="860.000000pt" height="900.000000pt" viewBox="0 0 860.000000 900.000000"
 preserveAspectRatio="xMidYMid meet">
<metadata>
Created by potrace 1.16, written by Peter Selinger 2001-2019
</metadata>
<g transform="translate(0.000000,900.000000) scale(0.100000,-0.100000)"
fill="#000000" stroke="none">
<path d="M4010 8584 c-739 -63 -1384 -292 -1980 -701 -373 -255 -755 -638
-1013 -1013 -381 -554 -601 -1140 -689 -1840 -9 -69 -13 -220 -13 -445 1 -359
13 -496 66 -760 173 -854 608 -1623 1237 -2189 967 -868 2240 -1213 3512 -950
694 143 1330 471 1877 967 279 252 556 596 758 941 246 420 431 960 499 1456
197 1445 -400 2871 -1570 3750 -470 353 -1023 598 -1619 719 -241 49 -396 63
-715 66 -168 1 -325 1 -350 -1z m-1650 -1572 c20 -9 44 -33 55 -54 17 -33 18
-41 7 -90 -25 -101 -25 -112 -4 -138 19 -24 26 -25 167 -30 130 -4 148 -7 161
-24 17 -23 18 -45 4 -82 -8 -21 -7 -31 5 -44 25 -28 103 -57 185 -69 155 -23
203 -47 219 -107 8 -30 15 -35 76 -54 22 -6 70 -31 106 -55 84 -55 135 -80
178 -89 47 -9 292 -102 365 -138 69 -35 149 -106 167 -150 11 -27 10 -32 -7
-45 -30 -23 -142 -10 -254 30 -128 47 -170 53 -214 32 -26 -12 -39 -28 -52
-61 -16 -41 -15 -61 5 -361 48 -703 82 -920 196 -1251 25 -73 61 -166 80 -206
116 -245 487 -690 725 -870 311 -235 651 -387 1051 -469 l109 -22 109 110
c129 129 193 169 260 162 92 -10 90 -55 -9 -175 -91 -112 -81 -129 71 -117 77
6 100 3 186 -20 117 -32 159 -29 214 15 l39 31 31 -23 c29 -21 43 -23 214 -28
218 -6 225 -9 225 -97 0 -39 -5 -58 -19 -72 -24 -24 -95 -46 -191 -61 -103
-16 -168 -36 -211 -64 -35 -24 -38 -24 -80 -9 -66 23 -154 12 -303 -36 -98
-32 -155 -44 -235 -51 -58 -5 -153 -16 -211 -24 -365 -52 -826 -43 -1325 25
-448 61 -849 204 -1180 420 -135 89 -390 294 -491 396 -163 165 -447 565 -602
850 -184 338 -288 612 -392 1038 -81 332 -107 417 -168 549 -39 87 -45 108
-45 168 0 89 41 177 115 243 64 57 105 79 232 121 54 18 106 40 114 48 14 13
10 14 -34 1 -27 -7 -67 -23 -89 -34 -78 -42 -135 -12 -121 63 8 39 61 92 104
102 121 27 156 48 183 110 24 53 19 112 -12 140 -10 9 -19 25 -19 34 0 18 56
73 127 125 54 39 87 88 78 114 -3 12 -25 36 -47 54 -78 62 -111 158 -70 206
43 51 153 68 222 33z"/>
<path d="M2241 6998 c-54 -29 -86 -117 -53 -150 10 -10 11 -6 6 19 l-6 32 88
3 c102 3 114 15 67 67 -33 36 -69 46 -102 29z"/>
<path d="M2517 6478 c-12 -38 45 -135 99 -169 19 -11 46 -19 61 -17 26 3 28 7
29 48 1 62 1 62 24 50 29 -16 25 5 -6 29 -23 18 -168 71 -194 71 -4 0 -10 -6
-13 -12z"/>
<path d="M2800 6286 c-47 -13 -119 -33 -160 -45 -41 -11 -149 -39 -239 -62
-168 -41 -254 -70 -234 -76 7 -3 47 7 90 21 163 51 288 57 368 16 l37 -19 -6
24 c-7 29 2 55 19 55 7 0 26 -16 42 -36 59 -74 82 -94 107 -94 31 0 56 42 56
95 l0 36 35 -27 c46 -35 55 -24 20 21 -24 32 -26 39 -15 65 23 56 5 60 -120
26z"/>
<path d="M3150 6109 c-187 -28 -294 -53 -515 -119 -183 -56 -300 -86 -457
-119 -35 -8 -58 -18 -58 -26 0 -7 21 -23 47 -35 l47 -22 -29 -15 -29 -16 26
-21 c14 -11 34 -26 44 -33 19 -12 19 -13 0 -28 -42 -32 -157 -5 -202 48 -19
23 -25 39 -22 64 2 18 2 33 0 33 -19 0 -156 -37 -188 -50 -60 -26 -112 -76
-124 -119 -12 -47 8 -122 44 -166 l25 -30 1 85 c0 93 22 160 58 179 22 12 105
15 115 5 4 -4 -8 -14 -26 -23 -68 -34 -33 -116 68 -162 69 -32 105 -21 105 32
0 31 9 34 114 45 l69 7 -6 -30 c-5 -28 -4 -30 16 -26 65 14 135 42 250 100
134 67 219 93 302 91 140 -2 552 84 653 136 98 51 156 153 122 217 -10 18 -22
19 -168 18 -98 0 -204 -8 -282 -20z"/>
<path d="M3348 5765 c-14 -8 -58 -19 -97 -25 -96 -13 -155 -27 -199 -46 -34
-15 -35 -17 -18 -27 10 -7 31 -22 45 -34 l26 -22 -25 -1 c-14 0 -59 9 -100 20
-92 24 -90 24 -90 2 0 -35 -32 -52 -97 -52 -58 0 -60 -1 -56 -24 10 -51 -118
-113 -212 -103 -87 9 -96 -22 -40 -133 41 -81 42 -91 14 -129 -17 -24 -32 -30
-77 -36 -30 -4 -65 -11 -77 -17 -23 -10 -45 -47 -45 -73 0 -9 -10 -15 -24 -15
-32 0 -41 -29 -23 -72 21 -48 50 -72 79 -62 55 19 136 -25 167 -89 33 -68 26
-237 -10 -237 -27 0 -62 57 -67 111 -4 44 -2 49 22 60 14 7 26 17 26 22 0 12
-75 87 -87 87 -12 0 -54 -41 -94 -91 l-29 -37 26 -17 c50 -33 104 -88 104
-106 0 -11 -9 -27 -19 -36 -19 -15 -18 -17 22 -37 50 -25 80 -68 102 -144 27
-93 60 -114 106 -66 14 15 31 23 41 21 29 -8 21 3 -42 60 -33 30 -58 59 -55
64 4 5 0 6 -7 4 -17 -7 -62 51 -52 66 4 6 22 8 45 4 l40 -7 -7 80 -7 79 32 16
31 15 -6 -97 c-9 -126 3 -134 80 -61 34 32 59 48 69 44 18 -7 95 -107 108
-141 22 -57 -38 -81 -118 -48 -67 28 -60 18 70 -104 47 -43 75 -106 63 -138
-8 -21 18 -78 44 -96 16 -11 29 -13 47 -6 33 12 43 11 43 -4 0 -7 7 -22 15
-33 13 -16 16 -17 25 -4 5 8 10 30 10 48 0 30 2 33 23 26 71 -22 93 -43 127
-127 16 -40 32 -63 44 -65 22 -5 18 13 -26 111 -16 38 -28 70 -26 73 9 9 150
-148 165 -183 27 -66 -4 -108 -90 -121 l-44 -7 75 -62 c50 -42 88 -65 111 -69
60 -10 67 -13 105 -50 41 -40 76 -102 76 -137 0 -62 -63 -63 -177 -1 -88 48
-173 80 -173 64 0 -18 88 -67 230 -130 164 -71 359 -167 423 -206 23 -15 92
-78 154 -141 124 -127 125 -129 18 -127 -100 1 -198 59 -135 79 11 3 20 10 20
14 0 11 -115 35 -134 28 -21 -8 -9 -44 29 -81 40 -41 116 -63 253 -74 56 -5
105 -12 108 -15 4 -3 -4 -20 -16 -36 -22 -32 -20 -51 7 -51 14 0 14 -2 -1 -19
-22 -24 -16 -36 34 -61 32 -17 44 -18 65 -8 36 16 67 -1 111 -62 47 -65 67
-65 139 0 51 46 65 56 65 46 0 -2 -14 -20 -30 -41 -17 -21 -28 -40 -26 -42 2
-2 34 12 71 31 109 58 193 49 406 -42 63 -27 136 -52 162 -56 26 -4 73 -16
105 -28 31 -11 80 -20 107 -20 56 -1 133 28 118 43 -6 6 -66 24 -135 42 -134
35 -183 58 -176 85 4 15 -5 17 -71 17 -102 0 -164 30 -268 127 -67 64 -87 77
-143 93 -87 25 -190 68 -257 106 -128 73 -254 210 -238 259 5 17 -5 34 -52 83
-72 75 -136 160 -205 275 -29 48 -76 110 -105 139 -29 30 -53 58 -53 63 0 6
-4 10 -9 10 -6 0 -11 -15 -13 -32 l-3 -33 -21 45 c-25 53 -85 110 -118 110
-19 0 -22 4 -18 25 2 14 21 39 40 55 l36 30 -21 22 c-11 13 -24 40 -27 61 -4
21 -23 91 -42 155 -20 64 -47 168 -60 231 -13 64 -26 122 -29 129 -9 24 -42
-6 -69 -60 -21 -45 -25 -49 -26 -26 0 39 20 127 31 134 6 3 16 0 24 -6 12 -10
17 -7 25 16 16 41 9 68 -18 72 -19 3 -23 8 -17 25 23 78 13 199 -16 182 -6 -4
-7 15 -2 52 5 32 8 109 8 172 -1 108 -2 114 -26 135 -24 20 -24 23 -12 76 32
142 25 299 -14 342 -19 22 -58 23 -95 3z m48 -260 c-3 -16 -10 -50 -15 -75
-12 -59 4 -75 19 -19 7 24 18 58 25 74 l14 30 0 -35 c1 -39 -19 -112 -43 -159
-32 -61 -86 -28 -86 52 0 44 27 146 47 176 15 24 16 24 30 5 9 -12 12 -31 9
-49z m-838 -544 c61 -31 81 -92 42 -131 -27 -27 -47 -17 -114 58 -60 67 -72
95 -31 68 14 -9 36 -23 50 -32 14 -9 25 -12 25 -7 0 6 -11 27 -25 47 -29 43
-32 55 -7 34 9 -9 36 -25 60 -37z m715 -154 c6 -26 15 -37 30 -39 20 -3 22 -9
22 -66 0 -42 4 -65 14 -71 17 -11 6 -84 -16 -103 -13 -11 -18 -10 -27 6 -6 10
-23 34 -38 53 -15 19 -30 54 -34 80 -7 48 -1 154 11 173 12 19 29 5 38 -33z
m-356 -180 c2 6 -10 43 -26 82 -35 79 -36 81 -18 81 25 0 177 -174 177 -202 0
-9 -7 -19 -16 -22 -12 -4 -15 -15 -12 -36 4 -28 3 -29 -13 -14 -18 16 -29 15
-61 -8 -13 -9 -20 -9 -33 2 -38 32 -105 208 -105 278 0 32 5 24 51 -69 29 -57
54 -99 56 -92z"/>
<path d="M1960 4822 c0 -12 11 -55 25 -94 33 -94 31 -105 -6 -38 -16 30 -41
66 -56 80 l-25 25 6 -30 c4 -16 26 -70 50 -120 24 -49 61 -130 81 -180 43
-105 75 -162 117 -210 41 -48 52 -44 23 8 -14 23 -39 84 -56 135 -17 51 -46
116 -65 143 -39 59 -45 78 -10 34 13 -16 28 -27 32 -23 17 17 -54 202 -105
278 -9 12 -11 11 -11 -8z"/>
<path d="M2737 4354 c-2 -3 4 -27 16 -53 11 -27 17 -56 14 -65 -10 -25 -57
-20 -132 14 -114 51 -154 35 -102 -41 13 -19 22 -40 20 -46 -2 -6 27 -23 64
-38 37 -15 114 -51 171 -81 94 -49 152 -67 152 -46 0 16 -60 103 -75 109 -22
8 -51 69 -60 123 -10 70 -25 109 -44 120 -10 5 -21 7 -24 4z"/>
<path d="M2060 4298 c0 -26 92 -223 146 -316 73 -125 302 -463 307 -454 2 4 2
1 0 -7 -6 -25 132 -239 217 -335 29 -33 77 -80 108 -105 30 -25 98 -85 149
-133 82 -76 103 -90 160 -108 77 -24 97 -16 73 28 -22 38 -109 101 -150 109
-26 4 -50 22 -92 69 -34 37 -55 69 -52 77 4 10 -5 16 -30 21 -40 8 -75 44
-111 117 -27 52 -33 58 -71 65 -61 11 -90 47 -123 154 -25 79 -62 141 -105
174 -19 14 -44 45 -54 69 -10 23 -54 85 -97 137 -97 118 -120 155 -152 239
-22 59 -108 211 -119 211 -2 0 -4 -6 -4 -12z"/>
<path d="M2870 3895 l25 -27 -25 7 c-14 4 -31 10 -39 13 -11 4 -13 -1 -9 -22
5 -26 4 -28 -23 -22 -38 7 -37 -3 6 -44 38 -37 43 -50 20 -50 -26 0 -16 -13
48 -64 65 -53 64 -70 -2 -36 -42 21 -54 15 -23 -12 9 -9 50 -32 90 -52 39 -20
97 -52 128 -72 101 -64 170 -83 105 -29 -24 21 -30 32 -25 51 5 20 -2 32 -35
62 -23 21 -41 47 -41 59 0 14 -15 30 -45 50 -25 15 -45 31 -45 36 0 4 17 7 38
7 35 1 36 2 17 15 -55 39 -53 54 11 75 19 6 34 15 34 20 0 11 -133 51 -190 58
l-45 5 25 -28z"/>
<path d="M3013 3334 c-14 -38 45 -80 166 -116 46 -13 164 -6 185 11 26 22 6
34 -130 80 -130 44 -210 53 -221 25z"/>
<path d="M3455 2665 c17 -14 99 -60 184 -102 155 -77 188 -108 63 -58 -37 14
-123 56 -190 91 -118 63 -165 79 -105 36 136 -95 551 -266 747 -308 102 -22
600 -91 741 -103 66 -6 170 -11 232 -11 122 0 313 17 326 30 19 18 -115 30
-259 24 -108 -5 -161 -3 -194 6 -28 8 -120 14 -245 15 -161 2 -228 7 -345 27
-131 23 -168 34 -385 121 -230 91 -367 152 -485 216 -30 17 -68 33 -85 36
l-30 6 30 -26z"/>
<path d="M5715 2568 c-20 -11 -35 -28 -35 -39 0 -6 298 -23 391 -22 53 1 99
15 99 31 0 12 -263 42 -355 42 -44 0 -89 -6 -100 -12z"/>
</g>
</svg>
