<svg xmlns="http://www.w3.org/2000/svg" enable-background="new 0 0 24 24" viewBox="0 0 24 24"><path fill="#DF34A6" d="M4.657,5.218C3.649,4.626,2.361,4.976,1.779,6c-0.1,0.178-0.174,0.369-0.221,0.566C1.287,7.717,1.982,8.874,3.114,9.15l-0.001,5.699c-0.391,0.097-0.748,0.306-1.026,0.603c-0.802,0.855-0.771,2.21,0.069,3.026c0.84,0.817,2.172,0.785,2.974-0.07l4.853,2.847c-0.057,0.199-0.086,0.404-0.086,0.609C9.897,23.045,10.839,24.001,12,24c0.225,0,0.445-0.037,0.659-0.108c1.103-0.371,1.703-1.582,1.338-2.706l4.822-2.832c0.149,0.17,0.324,0.316,0.517,0.429c1.009,0.592,2.296,0.241,2.878-0.782c0.104-0.181,0.181-0.377,0.229-0.581c0.269-1.146-0.427-2.296-1.554-2.569V9.152c0.193-0.048,0.378-0.123,0.549-0.223c1.011-0.589,1.361-1.9,0.782-2.928c-0.101-0.176-0.225-0.337-0.37-0.477c-0.845-0.816-2.179-0.782-2.982,0.077l-4.851-2.85c0.057-0.199,0.089-0.407,0.088-0.616C14.104,0.954,13.161-0.001,12,0c-0.202,0-0.406,0.029-0.6,0.088c-1.111,0.335-1.747,1.525-1.417,2.657l-4.854,2.85C4.99,5.446,4.831,5.319,4.657,5.218L4.657,5.218z M13.557,20.421c-0.387-0.428-0.941-0.698-1.557-0.698c-0.596,0-1.133,0.249-1.514,0.653L5.63,17.524l0.021-0.083H18.35l0.037,0.142L13.557,20.421L13.557,20.421z M13.51,3.628l4.863,2.858l-0.019,0.072c-0.279,1.146,0.405,2.305,1.531,2.588v5.707l-0.08,0.023l-6.353-11.19L13.51,3.628L13.51,3.628z M11.415,4.194c0.383,0.112,0.788,0.112,1.172,0L18.94,15.38c-0.291,0.283-0.498,0.646-0.593,1.045H5.654c-0.097-0.396-0.302-0.758-0.591-1.041L11.415,4.194L11.415,4.194z M5.624,6.479l4.863-2.852l0.058,0.06l-6.35,11.189l-0.082-0.023V9.145l0.074-0.021C5.303,8.797,5.945,7.614,5.624,6.479L5.624,6.479z"/><path fill="#DEDEDE" d="M12 17.441H5.651L5.63 17.524l4.856 2.852c.381-.403.918-.653 1.514-.653l0 0V17.441L12 17.441zM11.415 4.194L5.064 15.383c.289.283.494.645.591 1.041H12V4.278C11.803 4.278 11.606 4.25 11.415 4.194L11.415 4.194zM10.487 3.627L5.624 6.479c.321 1.135-.321 2.318-1.437 2.645L4.113 9.145v5.708l.082.023 6.35-11.189L10.487 3.627 10.487 3.627z"/><path fill="#C22D91" d="M4.195,14.876l-0.082-0.023V9.145l0.074-0.021c1.115-0.327,1.758-1.51,1.437-2.645l4.863-2.852l0.058,0.06L4.195,14.876L4.195,14.876z M12,0L12,0c-0.202,0-0.406,0.029-0.6,0.088c-1.111,0.335-1.747,1.525-1.417,2.657l-4.854,2.85C4.99,5.446,4.831,5.319,4.657,5.218C4.325,5.023,3.962,4.93,3.604,4.93C2.876,4.93,2.169,5.313,1.779,6c-0.1,0.178-0.174,0.369-0.221,0.566C1.287,7.717,1.982,8.874,3.114,9.15l-0.001,5.699c-0.391,0.097-0.748,0.306-1.026,0.603c-0.802,0.855-0.771,2.21,0.069,3.026c0.407,0.396,0.93,0.592,1.452,0.592c0.555,0,1.109-0.222,1.523-0.662l4.853,2.847c-0.057,0.199-0.086,0.404-0.086,0.609C9.897,23.044,10.838,24,11.998,24H12v-4.277l0,0c-0.596,0-1.133,0.249-1.514,0.653L5.63,17.524l0.021-0.083H12v-1.016H5.654c-0.097-0.396-0.302-0.758-0.591-1.041l6.351-11.189C11.606,4.25,11.803,4.278,12,4.278V0L12,0z"/></svg>