<svg xmlns="http://www.w3.org/2000/svg" enable-background="new 0 0 24 24" viewBox="0 0 24 24"><path fill="#4E7D9D" d="M17.058 17.584c-.02.056-.089.117-.089.118 5.946-1.581 3.76-5.573.917-4.562-.25.09-.381.297-.381.297s.158-.064.509-.138C19.452 12.995 21.51 15.244 17.058 17.584zM4.439 22.324c9.472 1.553 17.265-.7 14.807-1.82 0 0 .671.559-.738.991-2.682.822-11.16 1.069-13.515.033-.846-.373.742-.89 1.24-.998.52-.114.818-.093.818-.093C6.111 19.766.966 21.754 4.439 22.324L4.439 22.324z"/><path fill="#4E7D9D" d="M20.75 21.726c0 0-.299.775-3.532 1.391-3.646.694-8.146.613-10.813.168 0-.001.547.457 3.354.639C14.033 24.201 20.595 23.771 20.75 21.726L20.75 21.726zM15.195 16.549c-2.746.535-4.332.516-6.341.307-1.552-.163-.536-.924-.536-.924-4.019 1.348 2.237 2.879 7.852 1.218C15.574 16.938 15.195 16.549 15.195 16.549L15.195 16.549z"/><path fill="#F2941B" d="M9.243,7.627c-1.107,1.681,0.544,3.486,2.792,5.539c-0.877-2.004-3.851-3.759,0.001-6.836C16.84,2.494,14.374,0,14.374,0C15.37,3.962,10.868,5.158,9.243,7.627L9.243,7.627z"/><path fill="#4E7D9D" d="M8.887 18.56c-3.648 1.031 2.219 3.162 6.865 1.149-.761-.3-1.306-.646-1.306-.646-2.071.398-3.032.429-4.913.211C7.98 19.094 8.887 18.56 8.887 18.56L8.887 18.56zM15.992 14.67c.456-.315 1.086-.587 1.086-.587s-1.791.325-3.577.477c-2.184.185-4.529.221-5.704.062C5.01 14.246 9.323 13.21 9.323 13.21s-1.675-.114-3.733.892C3.153 15.293 11.614 15.835 15.992 14.67L15.992 14.67z"/><path fill="#446D89" d="M6.437 20.3c-1.609 0-4.979 1.534-1.997 2.024 2.292.376 4.486.529 6.46.529.375 0 .742-.005 1.1-.016v-.635c-.328.007-.657.01-.984.01-2.531 0-4.932-.204-6.022-.684-.846-.373.742-.89 1.24-.998.38-.083.641-.095.755-.095.042 0 .063.002.063.002C6.92 20.342 6.702 20.3 6.437 20.3L6.437 20.3zM6.405 23.285c.002 0 .551.457 3.354.639.698.045 1.458.072 2.24.075v-.378c-.26.005-.519.008-.776.008C9.393 23.629 7.688 23.499 6.405 23.285L6.405 23.285zM6.405 23.285L6.405 23.285 6.405 23.285 6.405 23.285 6.405 23.285zM8.318 15.933c-2.767.928-.663 1.943 2.749 1.943.302 0 .613-.008.933-.025v-.881c-.291.015-.573.022-.85.022-.765 0-1.497-.053-2.296-.136C7.302 16.694 8.318 15.933 8.318 15.933L8.318 15.933z"/><path fill="#D38118" d="M12,5.047c-1.024,0.827-2.115,1.604-2.757,2.58C8.142,9.299,9.77,11.095,12,13.134v-0.045c-0.914-1.966-3.75-3.71,0-6.731V5.047L12,5.047z"/><path fill="#446D89" d="M8.887 18.56c-2.555.722-.443 1.983 2.647 1.983.153 0 .309-.003.466-.01v-1.138c-.175.009-.349.013-.523.013-.588 0-1.193-.047-1.945-.135C7.98 19.094 8.887 18.56 8.887 18.56L8.887 18.56zM9.16 13.206c-.468 0-1.892.076-3.57.896-1.491.729 1.101 1.215 4.34 1.215.673 0 1.373-.021 2.071-.065v-.589c-.75.039-1.483.06-2.146.06-.831 0-1.552-.032-2.057-.101C5.01 14.246 9.323 13.21 9.323 13.21S9.266 13.206 9.16 13.206L9.16 13.206z"/><path fill="#F2941B" d="M17.347,4.902c0-0.001-8.123,2.051-4.244,6.573c1.145,1.333-0.301,2.533-0.301,2.533s2.906-1.518,1.571-3.418C13.128,8.818,12.172,7.938,17.347,4.902L17.347,4.902z"/><path fill="#D38118" d="M13.746,6.51c-1.533,1.078-2.572,2.716-0.642,4.965c1.145,1.333-0.301,2.533-0.301,2.533s0.469-0.245,0.943-0.661V9.674c-0.398-0.656-0.547-1.254,0-2.027V6.51L13.746,6.51z"/></svg>