<svg xmlns="http://www.w3.org/2000/svg" enable-background="new 0 0 24 24" viewBox="0 0 24 24"><path fill="#105E86" d="M6.532,19.554c-0.146,0-0.276-0.009-0.386-0.025v0.484c0.226,0.091,0.413,0.136,0.566,0.136c0.573,0,1.101-0.35,1.583-1.054c0.616-0.91,1.114-2.371,1.492-4.379h-0.88c-0.158,1.233-0.436,2.375-0.835,3.42c0.028-0.209-0.041-0.576-0.205-1.102L7.14,14.716H6.23l1.014,3.099c0.152,0.466,0.23,0.776,0.23,0.927c0,0.22-0.098,0.418-0.295,0.595C7.015,19.479,6.8,19.554,6.532,19.554L6.532,19.554z"/><polygon fill="#DE8A03" points="19.482 13.293 19.482 18.721 22.112 18.721 22.112 18.055 20.367 18.055 20.367 13.293 19.482 13.293"/><path fill="#105E86" d="M1.04,14.393h0.01l1.4,4.329h0.705l1.41-4.329h0.008c0.147,1.355,0.24,2.796,0.27,4.329H5.77h0.003c-0.044-1.639-0.186-3.451-0.428-5.428H4.25l-1.347,3.989H2.895L1.56,13.293H0.41C0.192,14.981,0.055,16.792,0,18.721h0.845C0.872,17.135,0.937,15.691,1.04,14.393L1.04,14.393z"/><path fill="#DE8A03" d="M18.679 15.906c0-1.797-.718-2.696-2.155-2.696-.704 0-1.254.228-1.65.685-.43.499-.646 1.233-.646 2.204 0 .954.19 1.655.575 2.1.349.404.877.605 1.583.605.264 0 .506-.032.725-.097l1.325.758.36-.611h-.003l-1.016-.491c.09-.074.177-.156.256-.245C18.464 17.621 18.679 16.883 18.679 15.906L18.679 15.906zM16.476 18.131c-.445 0-.77-.164-.978-.491l.002-.005c-.225-.353-.337-.923-.337-1.704 0-1.367.424-2.052 1.27-2.052.443 0 .77.164.977.491.224.355.336.919.336 1.691C17.746 17.439 17.322 18.131 16.476 18.131L16.476 18.131zM13.2 16.074c0 0-.794-.447-1.187-.658-.432-.235-.666-.513-.666-.834 0-.21.095-.381.248-.515.152-.136.371-.202.654-.202.349 0 .704.076 1.064.226l.213-.468c-.42-.269-.888-.402-1.4-.402-.5 0-.905.135-1.22.408-.313.269-.47.623-.47 1.065 0 .531.21.855.632 1.156 0 0 .776.436 1.163.645.418.23.648.506.648.83 0 .255-.112.459-.3.604-.19.144-.451.216-.783.216-.357 0-.752-.105-1.19-.322l-.237.468c.509.337 1.03.506 1.573.506.581 0 1.04-.148 1.385-.443.344-.294.516-.673.516-1.135l.006.003C13.848 16.693 13.633 16.373 13.2 16.074L13.2 16.074z"/><path fill="#0E5275" d="M9.509,16.008H8.691c-0.156,0.748-0.363,1.458-0.619,2.128c0.028-0.209-0.041-0.576-0.205-1.102l-0.322-1.025H6.653l0.591,1.807c0.152,0.466,0.23,0.776,0.23,0.927c0,0.22-0.098,0.418-0.295,0.595c-0.164,0.143-0.379,0.218-0.647,0.218c-0.146,0-0.276-0.009-0.386-0.025v0.484c0.226,0.091,0.413,0.136,0.566,0.136c0.573,0,1.101-0.35,1.583-1.054C8.77,18.393,9.175,17.363,9.509,16.008L9.509,16.008z"/><polygon fill="#C17803" points="20.367 16.008 19.482 16.008 19.482 18.721 22.112 18.721 22.112 18.055 20.367 18.055 20.367 16.008"/><path fill="#0E5275" d="M0.935,16.008H0.137C0.072,16.884,0.027,17.789,0,18.721h0.845C0.861,17.765,0.891,16.86,0.935,16.008L0.935,16.008z M4.039,16.008H3.333l-0.43,1.274H2.895l-0.427-1.274H1.573l0.877,2.714h0.705L4.039,16.008L4.039,16.008z M5.623,16.008H4.719c0.064,0.871,0.106,1.775,0.124,2.714H5.77h0.003C5.75,17.864,5.7,16.959,5.623,16.008L5.623,16.008z"/><path fill="#C17803" d="M18.678 16.008h-.932c0 .018 0 .036 0 .054 0 1.378-.424 2.069-1.27 2.069-.445 0-.77-.164-.978-.491l.002-.005c-.218-.342-.329-.885-.337-1.627h-.935c0 .03-.001.06-.001.091 0 .954.19 1.655.575 2.1.349.404.877.605 1.583.605.264 0 .506-.032.725-.097l1.325.758.36-.611h-.003l-1.016-.491c.09-.074.177-.156.256-.245C18.449 17.639 18.664 16.934 18.678 16.008L18.678 16.008zM13.082 16.008h-1.731c.261.146.643.359.88.486.418.23.648.506.648.83 0 .255-.112.459-.3.604-.19.144-.451.216-.783.216-.357 0-.752-.105-1.19-.322l-.237.468c.509.337 1.03.506 1.573.506.581 0 1.04-.148 1.385-.443.344-.294.516-.673.516-1.135l.006.003c0-.528-.215-.847-.648-1.146C13.2 16.074 13.155 16.049 13.082 16.008L13.082 16.008z"/><path fill="#105E86" d="M16.406,5.769c-0.115,0-0.194,0.013-0.275,0.032v0.013h0.014c0.054,0.102,0.146,0.177,0.214,0.268c0.054,0.104,0.1,0.21,0.154,0.314l0.013-0.015c0.094-0.065,0.141-0.169,0.141-0.327l-0.08-0.137l-0.18-0.151L16.406,5.769L16.406,5.769z"/><path fill="#105E86" d="M23.695,13.2c-0.194-0.255-0.435-0.478-0.695-0.662c-0.214-0.144-0.682-0.344-0.77-0.585l-0.013-0.014c0.146-0.013,0.32-0.065,0.46-0.104c0.227-0.06,0.435-0.046,0.67-0.104c0.106-0.026,0.213-0.059,0.319-0.092v-0.06c-0.12-0.117-0.21-0.277-0.334-0.387c-0.34-0.289-0.717-0.571-1.104-0.807c-0.21-0.132-0.476-0.216-0.697-0.328l-0.26-0.125c-0.12-0.143-0.19-0.333-0.275-0.504c-0.192-0.361-0.38-0.761-0.547-1.143c-0.12-0.257-0.193-0.512-0.34-0.749c-0.69-1.116-1.437-1.792-2.586-2.454c-0.247-0.137-0.543-0.196-0.856-0.268c-0.167-0.008-0.334-0.02-0.5-0.027c-0.11-0.046-0.216-0.171-0.31-0.231c-0.38-0.235-1.364-0.746-1.644-0.07c-0.18,0.426,0.267,0.846,0.423,1.063c0.115,0.15,0.26,0.322,0.34,0.49c0.047,0.115,0.06,0.231,0.107,0.35c0.106,0.289,0.207,0.611,0.347,0.881c0.073,0.138,0.153,0.281,0.247,0.405c0.054,0.073,0.146,0.106,0.167,0.223c-0.094,0.134-0.1,0.328-0.154,0.491c-0.24,0.743-0.146,1.662,0.194,2.209c0.107,0.163,0.362,0.525,0.703,0.386c0.3-0.117,0.234-0.491,0.32-0.819l0.048-0.184v0.015c0.094,0.185,0.188,0.36,0.274,0.545c0.206,0.321,0.566,0.655,0.867,0.879c0.16,0.117,0.287,0.321,0.487,0.394v-0.019h-0.015l-0.154-0.131c-0.12-0.118-0.255-0.263-0.35-0.392c-0.28-0.37-0.527-0.777-0.747-1.196c-0.11-0.206-0.202-0.428-0.29-0.631L16.92,9.206c-0.1,0.143-0.247,0.268-0.32,0.445c-0.127,0.282-0.14,0.63-0.188,0.991l-0.027,0.014c-0.214-0.051-0.287-0.268-0.367-0.451c-0.2-0.467-0.233-1.216-0.06-1.753c0.047-0.137,0.247-0.572,0.167-0.702c-0.042-0.125-0.174-0.197-0.247-0.298c-0.087-0.122-0.18-0.281-0.24-0.419c-0.16-0.367-0.24-0.774-0.414-1.142c-0.08-0.17-0.22-0.348-0.334-0.503c-0.127-0.177-0.267-0.302-0.368-0.511l-0.027-0.269l0.094-0.089l0.422,0.061c0.247,0.099,0.455,0.19,0.662,0.328c0.094,0.065,0.195,0.19,0.315,0.222h0.14c0.214,0.046,0.455,0.014,0.655,0.072c0.355,0.112,0.675,0.275,0.962,0.451c0.876,0.546,1.596,1.32,2.085,2.244c0.08,0.151,0.115,0.29,0.188,0.447c0.14,0.324,0.313,0.65,0.455,0.964c0.14,0.31,0.275,0.624,0.476,0.881c0.1,0.137,0.502,0.209,0.682,0.28c0.133,0.06,0.34,0.114,0.46,0.185c0.23,0.138,0.454,0.295,0.67,0.446c0.11,0.074,0.443,0.238,0.463,0.371c-0.535-0.014-0.95,0.039-1.297,0.185c-0.1,0.039-0.26,0.039-0.274,0.164l0.11,0.21c0.08,0.131,0.218,0.308,0.346,0.4c0.14,0.108,0.28,0.212,0.427,0.304c0.26,0.157,0.555,0.25,0.81,0.408c0.145,0.092,0.293,0.209,0.44,0.307c0.073,0.049,0.12,0.137,0.214,0.169v-0.021l-0.105-0.21L23.695,13.2L23.695,13.2z"/><path fill="#0E5275" d="M16.407,5.767l-0.002,0.002c-0.115,0-0.194,0.013-0.275,0.032v0.013h0.014c0.054,0.102,0.146,0.177,0.214,0.268c0.054,0.104,0.1,0.21,0.154,0.314l0.013-0.015c0.094-0.065,0.141-0.169,0.141-0.327l-0.08-0.137L16.407,5.767L16.407,5.767z"/><path fill="#0E5275" d="M14.745,4.148c-0.229,0-0.427,0.088-0.531,0.337c-0.18,0.426,0.267,0.846,0.423,1.063c0.115,0.15,0.26,0.322,0.34,0.49c0.047,0.115,0.06,0.231,0.107,0.35c0.106,0.289,0.207,0.611,0.347,0.881c0.073,0.138,0.153,0.281,0.247,0.405c0.054,0.073,0.146,0.106,0.167,0.223c-0.094,0.134-0.1,0.328-0.154,0.491c-0.24,0.743-0.146,1.662,0.194,2.209c0.09,0.138,0.286,0.417,0.55,0.417c0.049,0,0.1-0.009,0.153-0.031c0.3-0.117,0.234-0.491,0.32-0.819l0.048-0.184v0.015c0.094,0.185,0.188,0.36,0.274,0.545c0.206,0.321,0.566,0.655,0.867,0.879c0.16,0.117,0.287,0.321,0.487,0.394v-0.019h-0.015l-0.154-0.131c-0.12-0.118-0.255-0.263-0.35-0.392c-0.28-0.37-0.527-0.777-0.747-1.196c-0.11-0.206-0.202-0.428-0.29-0.631L16.92,9.206c-0.1,0.143-0.247,0.268-0.32,0.445c-0.127,0.282-0.14,0.63-0.188,0.991l-0.027,0.014c-0.214-0.051-0.287-0.268-0.367-0.451c-0.2-0.467-0.233-1.216-0.06-1.753c0.047-0.137,0.247-0.572,0.167-0.702c-0.042-0.125-0.174-0.197-0.247-0.298c-0.087-0.122-0.18-0.281-0.24-0.419c-0.16-0.367-0.24-0.774-0.414-1.142c-0.08-0.17-0.22-0.348-0.334-0.503c-0.127-0.177-0.267-0.302-0.368-0.511l-0.027-0.269l0.094-0.089l0.422,0.061c0.247,0.099,0.455,0.19,0.662,0.328c0.094,0.065,0.195,0.19,0.315,0.222h0.14c0.214,0.046,0.455,0.014,0.655,0.072c0.355,0.112,0.675,0.275,0.962,0.451c0.315,0.197,0.611,0.423,0.882,0.675V5.825c-0.326-0.263-0.689-0.504-1.104-0.743c-0.247-0.137-0.543-0.196-0.856-0.268c-0.167-0.008-0.334-0.02-0.5-0.027c-0.11-0.046-0.216-0.171-0.31-0.231C15.618,4.407,15.137,4.148,14.745,4.148L14.745,4.148z"/></svg>