<svg xmlns="http://www.w3.org/2000/svg" enable-background="new 0 0 24 24" viewBox="0 0 24 24"><path fill="#F2BB30" d="M20.699,17.748c1.666,0,2.282-1.162,2.86-2.904c0.6-1.795,0.574-3.52,0-5.818c-0.413-1.655-1.194-2.904-2.86-2.904h-2.148v2.54c0,1.972-1.672,3.633-3.579,3.633H9.252c-1.564,0-2.86,1.339-2.86,2.908v5.454c0,1.553,1.35,2.464,2.86,2.908c1.811,0.53,3.552,0.626,5.721,0c1.441-0.418,2.861-1.26,2.861-2.908v-2.181h-5.717v-0.729H20.699L20.699,17.748z"/><path fill="#35668F" d="M3.444,17.749H5.41v-2.614c0-1.892,1.634-3.557,3.579-3.557h5.721c1.591,0,2.86-1.312,2.86-2.909V3.209c0-1.554-1.307-2.717-2.86-2.979c-1.918-0.316-4.002-0.3-5.721,0.006l0.001-0.001C6.568,0.663,6.129,1.558,6.129,3.213v2.18h5.727v0.73H3.98c-1.667,0-3.124,1.002-3.578,2.905c-0.525,2.18-0.547,3.54,0,5.818C0.808,16.538,1.779,17.749,3.444,17.749L3.444,17.749z"/><path fill="#D3A32A" d="M12,12.295H9.252c-1.564,0-2.86,1.339-2.86,2.908v5.454c0,1.553,1.35,2.464,2.86,2.908c0.912,0.267,1.807,0.424,2.748,0.434V12.295L12,12.295z"/><path fill="#2E597C" d="M11.827,0c-0.994,0-1.964,0.081-2.839,0.236l0.001-0.001C6.568,0.663,6.129,1.558,6.129,3.213v2.18h5.727v0.73H3.98c-1.667,0-3.124,1.002-3.578,2.905c-0.26,1.081-0.397,1.961-0.402,2.85v0.101c0.005,0.872,0.136,1.761,0.402,2.867c0.406,1.692,1.377,2.903,3.042,2.903H5.41v-2.614c0-1.892,1.634-3.557,3.579-3.557H12V0.001C11.942,0,11.885,0,11.827,0L11.827,0z"/><polygon fill="#FFF" points="18.231 7.357 18.232 7.357 18.232 7.353"/><path fill="#FFF" d="M15.332 19.929c.594 0 1.077.488 1.077 1.088 0 .606-.482 1.093-1.077 1.093-.59 0-1.077-.493-1.077-1.093C14.261 20.411 14.744 19.929 15.332 19.929zM8.63 3.936c-.594 0-1.076-.488-1.076-1.088C7.56 2.243 8.036 1.756 8.63 1.756c.59 0 1.077.493 1.077 1.093C9.707 3.448 9.225 3.936 8.63 3.936L8.63 3.936z"/><path fill="#DEDEDE" d="M8.63 1.756c-.594 0-1.071.487-1.076 1.093 0 .6.482 1.088 1.076 1.088l0 0V1.756L8.63 1.756 8.63 1.756zM15.332 19.929c-.594 0-1.071.487-1.076 1.093 0 .6.482 1.088 1.076 1.088l0 0V19.929L15.332 19.929 15.332 19.929z"/></svg>